<svg width="141" height="58" viewBox="0 0 141 58" fill="none" xmlns="http://www.w3.org/2000/svg">
<path d="M38.678 14.52C38.87 14.552 38.966 14.728 38.966 15.048C38.966 15.336 38.902 15.56 38.774 15.72C38.454 16.2 37.686 16.44 36.47 16.44H35.03C34.774 24.984 33.414 31.272 30.95 35.304C28.518 39.304 25.478 41.304 21.83 41.304C14.726 41.304 11.174 36.376 11.174 26.52V17.976C11.142 13.88 10.774 11.032 10.07 9.432C9.36599 7.832 8.35799 7.032 7.04599 7.032C4.03799 7.032 2.53399 10.04 2.53399 16.056C2.46999 16.248 2.29399 16.344 2.00599 16.344C1.71799 16.344 1.49399 16.28 1.33399 16.152C0.853993 15.832 0.613993 15.064 0.613993 13.848C0.613993 10.904 1.23799 8.664 2.48599 7.128C3.73399 5.592 5.44599 4.824 7.62199 4.824C10.694 4.824 12.774 5.8 13.862 7.752C14.95 9.704 15.494 13.112 15.494 17.976V26.76C15.494 31.336 15.99 34.584 16.982 36.504C17.974 38.424 19.622 39.384 21.926 39.384C24.23 39.384 26.278 37.384 28.07 33.384C29.862 29.352 30.758 23.592 30.758 16.104C25.158 15.272 22.358 12.888 22.358 8.952C22.358 7.512 22.806 6.328 23.702 5.4C24.63 4.472 25.878 4.008 27.446 4.008C29.878 4.008 31.686 4.872 32.87 6.6C34.086 8.296 34.822 10.904 35.078 14.424C36.55 14.488 37.75 14.52 38.678 14.52ZM24.566 8.808C24.566 11.496 26.614 13.224 30.71 13.992C30.614 10.984 30.294 8.904 29.75 7.752C29.238 6.6 28.518 6.024 27.59 6.024C26.694 6.024 25.958 6.296 25.382 6.84C24.838 7.384 24.566 8.04 24.566 8.808ZM41.2002 12.6C40.6562 12.056 40.3842 11.384 40.3842 10.584C40.3842 9.784 40.6562 9.112 41.2002 8.568C41.7442 7.992 42.4162 7.704 43.2162 7.704C44.0162 7.704 44.6882 7.992 45.2322 8.568C45.8082 9.112 46.0962 9.784 46.0962 10.584C46.0962 11.384 45.8082 12.056 45.2322 12.6C44.6882 13.144 44.0162 13.416 43.2162 13.416C42.4162 13.416 41.7442 13.144 41.2002 12.6ZM41.0082 20.232C41.0082 19.272 41.2482 18.552 41.7282 18.072C42.2082 17.56 42.8162 17.304 43.5522 17.304C44.2882 17.304 44.8802 17.528 45.3282 17.976V31.752C45.3282 33.576 45.6802 34.952 46.3842 35.88C47.0882 36.808 48.0482 37.272 49.2642 37.272C50.4802 37.272 51.6162 36.536 52.6722 35.064C53.7282 33.592 54.2562 31.208 54.2562 27.912C54.3202 27.72 54.5602 27.624 54.9762 27.624C55.5522 27.624 55.8402 28.472 55.8402 30.168C55.8402 32.632 55.1682 34.744 53.8242 36.504C52.4802 38.264 50.7682 39.144 48.6882 39.144C46.0962 39.144 44.1602 38.376 42.8802 36.84C41.6322 35.304 41.0082 33.128 41.0082 30.312V20.232ZM57.0522 30.6V12.168C57.0522 8.008 57.4522 5 58.2522 3.144C59.0522 1.256 60.5882 0.311997 62.8602 0.311997C64.0762 0.311997 65.0202 0.823997 65.6922 1.848C66.3642 2.872 66.7002 4.328 66.7002 6.216C66.7002 9.64 64.9242 13.128 61.3722 16.68V19.224C62.5562 17.944 64.0602 17.304 65.8842 17.304C68.6682 17.304 70.9562 18.248 72.7482 20.136C74.5402 22.024 75.4362 24.696 75.4362 28.152C75.4362 31.608 74.5722 34.312 72.8442 36.264C71.1162 38.184 68.8762 39.144 66.1242 39.144C63.4042 39.144 61.2122 38.36 59.5482 36.792C57.8842 35.224 57.0522 33.16 57.0522 30.6ZM70.8762 28.152C70.8762 24.824 70.5242 22.504 69.8202 21.192C69.1162 19.848 67.8682 19.176 66.0762 19.176C64.2842 19.176 63.0522 19.736 62.3802 20.856C61.7082 21.976 61.3722 23.896 61.3722 26.616V29.112C61.3722 31.992 61.7402 34.072 62.4762 35.352C63.2442 36.632 64.4922 37.272 66.2202 37.272C67.9482 37.272 69.1482 36.584 69.8202 35.208C70.5242 33.832 70.8762 31.48 70.8762 28.152ZM62.9082 2.184C62.2682 2.184 61.8522 2.84 61.6602 4.152C61.4682 5.432 61.3722 8.136 61.3722 12.264V14.376C63.5482 11.56 64.6362 8.824 64.6362 6.168C64.6362 3.512 64.0602 2.184 62.9082 2.184ZM101.554 28.2C102.226 28.2 102.562 28.712 102.562 29.736C102.562 32.104 101.73 34.264 100.066 36.216C98.4342 38.168 95.9382 39.144 92.5782 39.144C89.2182 39.144 86.5142 38.248 84.4662 36.456C82.4502 34.632 81.4422 31.976 81.4422 28.488C81.4422 24.968 82.3382 22.232 84.1302 20.28C85.9222 18.296 88.2102 17.304 90.9942 17.304C93.0102 17.304 94.4822 17.848 95.4102 18.936C96.3382 19.992 96.8022 21.256 96.8022 22.728C96.8022 25.128 95.7942 27.128 93.7782 28.728C91.7942 30.296 89.2502 31.08 86.1462 31.08C86.4342 33.128 87.1702 34.68 88.3542 35.736C89.5702 36.76 91.1542 37.272 93.1062 37.272C95.0902 37.272 96.8662 36.536 98.4342 35.064C100.034 33.56 100.834 31.368 100.834 28.488C100.866 28.296 101.106 28.2 101.554 28.2ZM86.0022 28.872V29.304C87.9862 29.048 89.6982 28.424 91.1382 27.432C92.6102 26.44 93.3462 24.968 93.3462 23.016C93.3462 21.768 93.0742 20.824 92.5302 20.184C91.9862 19.512 91.2182 19.176 90.2262 19.176C88.7222 19.176 87.6342 19.912 86.9622 21.384C86.3222 22.856 86.0022 25.352 86.0022 28.872ZM117.693 27.624C118.269 27.624 118.557 28.472 118.557 30.168C118.557 32.632 117.885 34.744 116.541 36.504C115.197 38.264 113.485 39.144 111.405 39.144C108.813 39.144 106.877 38.376 105.597 36.84C104.317 35.304 103.677 33.128 103.677 30.312V12.264C103.677 8.136 104.109 5.112 104.973 3.192C105.837 1.272 107.357 0.311997 109.533 0.311997C112.701 0.311997 114.285 2.456 114.285 6.744C114.285 9.976 113.645 12.568 112.365 14.52C111.117 16.472 109.677 17.928 108.045 18.888V31.752C108.045 33.576 108.397 34.952 109.101 35.88C109.805 36.808 110.765 37.272 111.981 37.272C113.197 37.272 114.333 36.536 115.389 35.064C116.445 33.592 116.973 31.208 116.973 27.912C117.037 27.72 117.277 27.624 117.693 27.624ZM112.221 6.792C112.221 3.72 111.453 2.184 109.917 2.184C109.533 2.184 109.229 2.312 109.005 2.568C108.813 2.824 108.637 3.464 108.477 4.488C108.189 6.056 108.045 10.184 108.045 16.872C110.829 14.856 112.221 11.496 112.221 6.792ZM119.627 20.232C119.627 19.272 119.867 18.552 120.347 18.072C120.827 17.56 121.435 17.304 122.171 17.304C122.907 17.304 123.499 17.528 123.947 17.976V31.752C123.947 35.56 124.907 37.464 126.827 37.464C128.555 37.464 129.963 36.552 131.051 34.728C132.171 32.904 132.731 29.832 132.731 25.512V20.232C132.731 19.272 132.971 18.552 133.451 18.072C133.931 17.56 134.539 17.304 135.275 17.304C136.011 17.304 136.603 17.528 137.051 17.976V42.36C137.435 42.328 138.043 42.312 138.875 42.312C139.707 42.312 140.123 42.664 140.123 43.368L139.835 44.088C138.619 44.088 137.691 44.104 137.051 44.136V46.536C137.051 49.832 136.299 52.424 134.795 54.312C133.323 56.232 131.339 57.192 128.843 57.192C127.371 57.192 126.059 56.744 124.907 55.848C123.787 54.984 123.227 53.608 123.227 51.72C123.227 49.288 124.091 47.352 125.819 45.912C127.547 44.472 129.851 43.464 132.731 42.888V35.4C131.387 37.896 129.227 39.144 126.251 39.144C124.203 39.144 122.587 38.488 121.403 37.176C120.219 35.864 119.627 33.976 119.627 31.512V20.232ZM125.675 51.864C125.675 52.984 125.979 53.832 126.587 54.408C127.195 55.016 127.931 55.32 128.795 55.32C129.659 55.32 130.363 55.064 130.907 54.552C132.123 53.464 132.731 50.184 132.731 44.712C128.027 45.768 125.675 48.152 125.675 51.864Z" fill="black"/>
</svg>
